<svg role="img" aria-label="Lucid Motors Logo" xmlns="http://www.w3.org/2000/svg" viewBox="0 0 400 23" fill="none">
  <path fill-rule="evenodd" clip-rule="evenodd" d="M71.2574 22.0428C69.5663 22.1166 13.2359 22.0537 11.536 22.0537C4.93578 22.0537 0 17.3682 0 12.3484V0.873549H8.70798V12.0618C8.70798 15.5618 11.3432 18.1759 15.04 18.1759H71.2574V22.0428Z" fill="#003c63"/>
  <path fill-rule="evenodd" clip-rule="evenodd" d="M170.097 22.0498C168.406 22.1236 108.239 22.0498 106.539 22.0498C99.9387 22.0498 95.0029 17.3643 95.0029 12.3445V0.869629H103.713V12.0579C103.713 15.5557 106.344 18.172 110.041 18.172H161.387V0.869629H170.097V22.0498Z" fill="#003c63"/>
  <path fill-rule="evenodd" clip-rule="evenodd" d="M268.332 22.0563C266.641 22.1302 207.104 22.0672 205.401 22.0672C189.991 22.0672 189.991 0.884889 205.401 0.884889C207.104 0.884889 266.641 0.821924 268.332 0.895745V4.76267H209.047C200.563 4.76267 200.563 18.1894 209.047 18.1894H268.332V22.0563Z" fill="#003c63"/>
  <path fill-rule="evenodd" clip-rule="evenodd" d="M292.079 22.3322H300.221V0.620117H292.079V22.3322Z" fill="#003c63"/>
  <path fill-rule="evenodd" clip-rule="evenodd" d="M323.967 22.0633V0.883211C325.658 0.80939 386.742 0.909266 388.442 0.909266C403.853 0.909266 403.853 22.0633 388.442 22.0633C386.742 22.0633 325.658 22.1372 323.967 22.0633ZM332.737 4.78704V18.1856H384.941C393.425 18.1856 393.425 4.78704 384.941 4.78704H332.737Z" fill="#003c63"/>
</svg>